<?xml version="1.0" standalone="no"?><svg xmlns="http://www.w3.org/2000/svg" viewBox="0 0 1440 320"><path fill="#960557" fill-opacity="1" d="M0,192L34.3,213.3C68.6,235,137,277,206,293.3C274.3,309,343,299,411,245.3C480,192,549,96,617,69.3C685.7,43,754,85,823,133.3C891.4,181,960,235,1029,240C1097.1,245,1166,203,1234,181.3C1302.9,160,1371,160,1406,160L1440,160L1440,0L1405.7,0C1371.4,0,1303,0,1234,0C1165.7,0,1097,0,1029,0C960,0,891,0,823,0C754.3,0,686,0,617,0C548.6,0,480,0,411,0C342.9,0,274,0,206,0C137.1,0,69,0,34,0L0,0Z"></path></svg>